<svg xmlns="http://www.w3.org/2000/svg" width="20.999" height="20.999" viewBox="0 0 20.999 20.999"><defs><style>.a{fill:#048c88;}</style></defs><g transform="translate(0 0)"><g transform="translate(0 0)"><path class="a" d="M20.43,3.789,17.21.569a1.94,1.94,0,0,0-2.745,0L1.826,13.208a.692.692,0,0,0-.183.325L.02,20.141a.693.693,0,0,0,.838.838l6.608-1.623a.692.692,0,0,0,.325-.183L20.43,6.534A1.94,1.94,0,0,0,20.43,3.789ZM1.639,19.36l.066-.269.2.2Zm1.842-.452-1.39-1.39.6-2.461L5.942,18.3ZM7.3,17.7,3.3,13.7,13.639,3.354,17.645,7.36ZM19.45,5.555l-.8.8L14.644,2.349l.8-.8a.555.555,0,0,1,.786,0l3.22,3.22A.555.555,0,0,1,19.45,5.555Z" transform="translate(0 0)"/></g></g></svg>